<?xml version="1.0" encoding="utf-8"?>
<svg version="1.1" id="Livello_1" xmlns="http://www.w3.org/2000/svg" xmlns:xlink="http://www.w3.org/1999/xlink" x="0px" y="0px"
	 viewBox="0 0 141.7 186.7" style="enable-background:new 0 0 141.7 186.7;" xml:space="preserve" styletag="here">
<style type="text/css">
	.st0{fill:#3E4442;}
	.st1{fill:#1B2123;}
	.st2{opacity:0.6;fill:#A7AFAE;enable-background:new    ;}
	.st3{fill:#33FFB5;}
	.st4{fill:#7833FF;}
</style>
<path class="st0" d="M92.8,41.1c-0.1,0.1-0.1,0.2-0.2,0.2c-0.8,0.9-1.7,1.7-2.6,2.4c-0.1,0.1-0.3,0.3-0.4,0.3
	c0.2-1.1,0.8-2.2,0.7-3.3c0-0.1-0.1-0.3-0.2-0.4h-0.1c0,0-0.1,0-0.1,0.1c-0.1,0.1-0.1,0.1-0.2,0.1c-0.2,0.1-0.3,0.2-0.5,0.3
	l-1.2,0.8c-6.6,4.5-16.7,13-16.7,13h-0.5c-0.4-0.3-0.8-0.7-1.3-1c-1.1-0.9-2.2-1.8-3.2-2.6l-4.4-3.5c-1.6-1.2-3.2-2.5-4.8-3.6
	c-1.4-1-2.9-2.1-4.4-3c-0.2-0.1-0.3-0.2-0.5-0.3c-0.1-0.1-0.2-0.2-0.3-0.2c-0.2,0-0.2,0.2-0.2,0.4c-0.1,1.1,0.5,2.2,0.7,3.3
	c-0.1,0-0.3-0.2-0.4-0.3c-0.9-0.7-1.8-1.5-2.6-2.4l-0.1-0.1c-4.6,8.2-9.4,20.2-10.6,33.1c-0.2,1.3,13.6,14.8,14.9,14.8
	c0.6,0,0.9-1.4,0.9-1.4s4,15.6,10.8,19.8c1.6,0.9,2.8-1.7,5.4-1.6h0.9c2.6-0.1,3.8,2.5,5.4,1.6c6.8-4.3,10.8-19.8,10.8-19.8
	s0.3,1.4,0.9,1.4c1.3,0,15-13.6,14.9-14.8C102.2,61.4,97.4,49.3,92.8,41.1L92.8,41.1z M71.7,102c-0.3,0.1-0.6,0.2-0.9,0.3
	c-0.1,0-0.2,0-0.3,0.1c-0.2,0-0.3,0-0.5-0.1c-0.3-0.1-0.6-0.2-0.8-0.3c-2.2-1.1-6.6-3.5-6.6-3.9c0-0.4,0.2-1.4,0.6-1.7
	c0.9-0.8,0.5,0.5,1.5,0.4c2.2-0.2,3.2-0.9,5.6-0.9h0.2c2.5,0,3.4,0.7,5.6,0.9c1,0.1,0.6-1.2,1.5-0.4c0.4,0.3,0.6,1.6,0.6,1.7
	C78.3,98.6,73.8,100.9,71.7,102L71.7,102z M93.8,53.8c-1,0.7-2.5,7.1-2.6,7.8c-0.6,4-11.7,4.8-12.5,5.9c-0.6,0.9,0.1,1.4,0.1,1.4
	s3.7,3.4,5.1,7.8c0.1,0.3,0.5,1.2,0.1,0.7c-1.5-1.9-5.6-6.9-8.2-7.1c-1.4-0.1-7.7-0.1-9.5,0c-2.7,0.2-6.8,5.2-8.2,7.1
	c-0.4,0.5-0.1-0.3,0.1-0.7c1.4-4.4,5.1-7.8,5.1-7.8s0.7-0.6,0.1-1.4c-0.8-1.1-11.8-1.9-12.5-5.9c-0.1-0.7-1.7-7.1-2.6-7.8
	c-1-0.7-1.7-0.8-1.7-0.8s0.8-1,1.4-1.4c0.6-0.4,0.3,0.9,0.3,0.9c12.5,6.8,14.5,11.6,16.3,13.2c1.2,1,2.3-1.6,2.9-3.6
	c0.3-1.1,1.3-2.4,1.4-2.1c0.1,0.3-1.6,5.9-1.4,6.8c0.1,0.6,6.8,0.4,6.9,0c0.2-1-1.5-6.6-1.4-6.8c0.1-0.3,1.1,1,1.4,2.1
	c0.6,2,1.7,4.6,2.9,3.6c1.9-1.5,3.8-6.4,16.3-13.2c0,0-0.2-1.4,0.3-0.9c0.6,0.4,1.4,1.4,1.4,1.4S94.8,53.1,93.8,53.8L93.8,53.8z"/>
<path class="st1" d="M114.7,41.3"/>
<path class="st0" d="M90.2,125.6l-7.5,10.8l5.2-19.5c0,0,0.3-1.5-0.5-1.3l-1.7,0.9c0,0,3.2-9.3,2.2-12c0,0-5.1,12.7-14.7,13.3
	c-1.4,0-1.6-0.6-2.4-0.6s-1.5,0.6-2.9,0.6c-9.5-0.6-14.1-13.3-14.1-13.3c-1.1,2.7,2.2,12,2.2,12l-1.7-0.9c-0.8-0.2-0.5,1.3-0.5,1.3
	l5.2,19.5l-7.5-10.8c0,0-1.7,15.7,2.2,19.1c7.1,1.9,11.4,2.5,14,2.6c1.5,0.1,4,0,4.7,0c2.4,0.1,6.9-0.5,15.3-2.7
	C91.9,141.3,90.2,125.6,90.2,125.6L90.2,125.6z"/>
<path class="st2" d="M58,77.4c1.5-1.9,5.6-6.9,8.2-7.1c0.9-0.1-0.7,16-0.7,16c-0.6,1-1.7-12.1-2.9-12.1c-1.2,0-1.8,1.4-2.9,2.2
	C58.7,77.3,58,77.4,58,77.4L58,77.4z M64.5,65.8c-0.7-0.6-1.4-1.5-2.6-2.9c-2.1-2.4,2.1,3.3,5.2-7.3c0,0,4,0.9-0.2,4.2
	c-0.6,0.5-0.2,2.9-0.3,4C66.4,65.6,65.3,66.4,64.5,65.8L64.5,65.8z"/>
<path class="st0" d="M48.9,0c0,0-10.7,16.3-15,35.6c0,0-1.1,1.8,8.4,13c0,0,0.4,0.5,1.1,0c0.7-0.5,5.9-10.5,7.1-12.8
	c1.2-2.3,0.2-0.7,0.2-1.2c-0.3-3.6-1.6-19.5-1.1-28.3C49.6,3.6,49.5,0.2,48.9,0L48.9,0z M93,0c0,0,10.7,16.3,15,35.6
	c0,0,1.1,1.8-8.4,13c0,0-0.4,0.5-1.1,0c-0.7-0.5-5.9-10.5-7.1-12.8c-0.2-0.3-0.2-0.7-0.2-1.2c0.3-3.6,1.6-19.5,1.1-28.3
	C92.3,3.6,92.4,0.2,93,0L93,0z"/>
<path class="st2" d="M48.9,0c0,0-10.7,16.3-15,35.6c0,0-1.1,1.8,8.4,13c0.1,0.1,0.3,0.2,0.4,0.2c0.4-1.2-0.4-2.8-0.8-3.9
	c-1.4-4.5-3.3-12.6-2.9-14c0.5-1.4,2.9-0.1,3.9-1.8c0.5-0.9,6.5-13.3,6.5-13.9c-0.1-0.6-0.1-1.3-0.1-1.9c-0.1-2.3-0.1-4.6,0.1-6.9
	C49.6,3.7,49.4,0.2,48.9,0L48.9,0z M64.8,107.2c-6.6-4.6-10.5-19.6-10.5-19.6s-0.3,1.4-0.9,1.4c-1.3,0-15-13.6-14.9-14.8
	c0.9-9.8,3.8-19.4,8.1-28.3c0.5-1.1,1.9-3.7,2.5-4.8c0.6-1.1,2.8,2.3,3,2.4c1.3,1.3-2.8-0.1-2.9,0.1c-0.3,0.8-3.4,7.5-3.8,8.3
	s2.2,0.6,2.2,2.4c0,1.7,1.1,7,2.5,8.2c3.1,2.9,14,4.2,12.8,4.8c-1.2,0.6-3.7-0.1-7.1-1.1c-3.2-0.9-8.1-1.8-9.1-2.6
	c-1-0.8,1.6-1.5,1-2.3c-1-1.3-1.2-4.6-1.5-6.3c-0.3-1.7-0.7-0.9-0.7-0.7c-0.6,2.5-4.4,13.9-3.6,19.6c0.5,3.4,9.2,9.9,9.7,10.3
	c1.3,1.1,3-3.3,3.5-1.9c1.5,4.4,3.6,14.1,8,21.5c0.1,0.2,0.4,0.5,0.7,0.8C64.2,105.3,65,107.3,64.8,107.2L64.8,107.2z"/>
<path class="st3" d="M55,58.9c0.9,0.6,5.1,5,4.5,5.3c-0.9,0.6-6.5-1.8-7.1-2.7c-0.5-0.9-1.6-4.6-1-5C52,56.2,53.4,57.7,55,58.9
	L55,58.9z"/>
<path class="st2" d="M53.9,104.5c-0.1,0.2,0.3,0.9,0.3,1.1c0.3,1,0.6,1.9,1,2.8c1,2.8,2.3,6.5,3.8,9.2c1.5,2.7,2,3.2-0.5,2.1
	c-1.3-0.5-1.7-0.7-1.7-0.7s2.3,9.7,3.7,15.5c0.7,2.8,2.2,3.9,1.2,4.1c-3.3,0.5-7.7-5.8-7.8-4.9c-0.6,8.8,0.7,10.4,0.7,10.6
	c0.7,0.9-0.8,0.4-0.8,0.4c-3.9-3.4-2.2-19.1-2.2-19.1l7.5,10.8l-5.2-19.5c0,0-0.3-1.5,0.5-1.3l1.7,0.9
	C56.1,116.5,52.8,107.2,53.9,104.5L53.9,104.5z"/>
<path class="st4" d="M40.2,83.4c0,0,0.5-1.9,2.1-0.3c1.7,1.6,7.5,6.9,7.5,6.9s-1.4,11.3-1.5,25.1c-0.1,12.5,1,27,2.8,37
	c0,0,0,0.8-0.7,0.9c-0.8,0.1-10.7-0.5-17.4-5.6c-1.7-1.3-0.9-25.5,1.5-42C36.7,90.7,40.2,83.4,40.2,83.4L40.2,83.4z"/>
<path class="st3" d="M36.7,153.1c-0.1-0.2-2.1-0.7-2.7-0.9c-0.1,0-1-0.1-0.8,1.7l1,9c0,0-0.1,0.8,2.4,2.7
	C37.4,166.4,37,153.5,36.7,153.1L36.7,153.1z"/>
<path class="st4" d="M63.6,149.6c-0.3-0.7-8.3-1.6-8.8-1.7c-0.1,0-1-0.1-0.8,1.7l1.7,8.6c0,0,3.1,18.3,4.8,19.5
	c0.1,0.2,1.4,0.6,1.7,0C63.2,171.7,64.1,150.8,63.6,149.6L63.6,149.6z"/>
<path class="st3" d="M44.2,155.3c-0.4-0.5-4.2-1.1-4.8-1.2c-0.1,0-1.6-0.1-0.7,3.8c0.7,3.3,1.7,8.7,2.1,9.4c0.4,0.7,1.6,2.9,3.4,3.2
	C45,171.4,44.5,155.7,44.2,155.3L44.2,155.3z M51.5,156.8c-0.4-0.5-1.5-0.4-3.3-0.7c-1.5-0.2-2.5-0.7-2.6,0.3c0,1,0,3.8,0.5,5.9
	c0.7,3.3,2.2,9,2.6,9.8c0.9,1.7,6.8,4.3,7.6,3.8C57.1,176.7,51.8,157.1,51.5,156.8L51.5,156.8z"/>
<path class="st4" d="M32.3,48.9c-0.9,1.2-1,2.4-0.5,3.8c0.6,1.4,5.9,9.2,6.7,8.7c0.4-0.3,1.6-3.7,2.1-4.9c0.4-0.9,1.2-3.2,0.9-3.8
	c-0.3-0.6-1.6-2.1-3-3.9c-1.3-1.7-2.5-3.4-3.1-3.6C34.2,45,32.5,48.6,32.3,48.9L32.3,48.9z"/>
<path class="st3" d="M26.6,59.4c-0.9,1.2-0.9,2.1-0.3,3.6c0.6,1.4,8.3,12.3,9.1,11.8c0.4-0.3,1-4.2,1.3-5.4c0.8-3.6,1-4.7,0.7-5.3
	c-0.3-0.6-2.8-3.3-4.2-5.1c-1.3-1.7-2.5-4.3-3.1-4.5C28.7,54.1,26.8,59.1,26.6,59.4L26.6,59.4z"/>
<path class="st4" d="M21.6,70.3c-1.2,1.8-0.5,2.2,0,3.6c0.6,1.4,11.8,17.2,12.6,16.7c0.4-0.3,1.6-2.9,1.9-4.2
	c0.8-3.6,1.6-5.3,1.3-5.9c-0.3-0.6-8-9.6-9.3-11.4c-1.3-1.7-2.5-4.3-3.1-4.5C23.6,64.3,21.8,70,21.6,70.3L21.6,70.3z"/>
<path class="st3" d="M10.7,115.4c-0.2,1.5,3.3,5.1,4.2,6.3c1.3,1.8,12.7,13.5,13.5,13c0.8-0.5,0.6-8.7,0.7-10
	c0.2-1.9,0.1-2.6-0.2-3.2c-0.3-0.6-9.4-10.5-10.8-12.2c-1.4-1.6-4.7-6.8-5.3-6.9C11.4,102.2,10.7,115,10.7,115.4z M16.9,82.7
	c-1.1,1.9,0.2,3.2,0.8,4.6c0.6,1.4,13,17,13.8,16.5c0.4-0.3,1-4,1.2-5.2c0.6-3.6,1.1-4.2,0.7-4.8c-0.3-0.6-8.7-10.9-10.1-12.6
	c-1.3-1.7-2.8-4.8-3.4-4.9C18.6,76,17.1,82.4,16.9,82.7L16.9,82.7z"/>
<path class="st4" d="M13.5,96.6c-0.5,2.8,2.4,4.6,3,6c0.6,1.4,12.2,16.2,13,15.7c0.4-0.3,1.2-5.7,1.4-6.9c0.6-3.6,0.3-4.1-0.1-4.7
	C30.5,106.1,21,94.7,19.6,93c-1.3-1.7-2.8-4.8-3.4-4.9C14.8,87.8,13.6,96.3,13.5,96.6L13.5,96.6z"/>
<path class="st2" d="M93,0c0,0,10.7,16.3,15,35.6c0,0,1.1,1.8-8.4,13c-0.1,0.1-0.3,0.2-0.4,0.2c-0.4-1.2,0.4-2.8,0.8-3.9
	c1.4-4.5,3.3-12.6,2.9-14c-0.6-1.8-2.9-0.1-3.9-1.8c-0.5-0.9-6.5-13.3-6.5-13.9c0.1-0.6,0.1-1.3,0.1-1.9c0.1-2.3,0.1-4.6-0.1-6.9
	C92.3,3.7,92.5,0.2,93,0L93,0z M77.1,107.2c6.6-4.6,10.5-19.6,10.5-19.6s0.3,1.4,0.9,1.4c1.3,0,15-13.6,14.9-14.8
	c-0.9-9.8-3.8-19.4-8.1-28.3c-0.5-1.1-2-3.8-2.6-4.9c-0.6-1.1-2.7,2.5-2.9,2.6c-1.3,1.3,2.8-0.1,2.9,0.1c0.3,0.8,3.4,7.5,3.8,8.3
	s-2.2,0.6-2.2,2.4c0,2.2-1.1,7-2.5,8.2c-3.1,2.9-14,4.2-12.8,4.8c0.3,0.1,3.7-0.1,7.1-1.1c3.4-1,8.1-1.8,9.1-2.6
	c1-0.7-1.6-1.5-1-2.3c1-1.3,1.2-4.6,1.5-6.3c0.3-1.7,0.7-0.9,0.7-0.7c0.6,2.5,4.4,13.9,3.6,19.6c-0.5,3.4-9.2,9.9-9.7,10.3
	c-1.3,1.1-3-3.3-3.5-1.9c-1.5,4.4-3.6,14.1-8,21.5c-0.1,0.2-0.4,0.5-0.7,0.8C77.7,105.3,76.9,107.3,77.1,107.2L77.1,107.2z"/>
<path class="st3" d="M86.9,58.9c-0.9,0.6-5.1,5-4.5,5.3c0.9,0.6,6.5-1.8,7.1-2.7c0.5-0.9,1.6-4.6,1-5C89.9,56.2,88.5,57.7,86.9,58.9
	L86.9,58.9z"/>
<path class="st2" d="M83.9,77.4c-1.5-1.9-5.6-6.9-8.2-7.1c-0.9-0.1,0.7,16,0.7,16c0.6,1,1.7-12.1,2.9-12.1s1.8,1.4,2.9,2.2
	C83.1,77.2,83.9,77.4,83.9,77.4L83.9,77.4z M88,104.5c0.1,0.2-0.3,0.9-0.3,1.1c-0.3,1-0.6,2.8-1,3.7c-1,2.8-2.3,5.6-3.8,8.3
	c-1.5,2.7-2,3.2,0.5,2.1c1.3-0.5,1.7-0.7,1.7-0.7s-2.3,9.7-3.7,15.5c-1.4,5.8-2.2,3.9-1.2,4.1c3.3,0.5,7.7-5.8,7.8-4.9
	c0.6,8.8-0.7,10.4-0.7,10.6c-0.7,0.9,0.8,0.4,0.8,0.4c3.9-3.4,2.2-19.1,2.2-19.1l-7.5,10.8l5.2-19.5c0,0,0.3-1.5-0.5-1.3l-1.7,0.9
	C85.8,116.5,89.1,107.2,88,104.5L88,104.5z"/>
<path class="st4" d="M101.9,83.4c0,0-0.5-1.9-2.1-0.3c-1.7,1.6-7.5,6.9-7.5,6.9s1.4,11.3,1.5,25.1c0.1,12.5-1,27-2.8,37
	c0,0,0,0.8,0.7,0.9c0.7,0.1,10.7-0.5,17.4-5.6c1.7-1.3,0.9-25.5-1.5-42C105.5,90.7,101.9,83.4,101.9,83.4L101.9,83.4z"/>
<path class="st3" d="M105.1,153.1c0.1-0.2,2.1-0.7,2.7-0.9c0.1,0,1-0.1,0.8,1.7l-1,9c0,0,0.1,0.8-2.4,2.7
	C104.5,166.4,104.9,153.5,105.1,153.1L105.1,153.1z M97.6,155.3c0.4-0.5,4.2-1.1,4.8-1.2c0.1,0,1.6-0.1,0.7,3.8
	c-0.7,3.3-1.7,8.7-2.1,9.4c-0.5,0.8-1.6,2.9-3.4,3.2C96.9,171.4,97.3,155.7,97.6,155.3L97.6,155.3z M90.3,156.8
	c0.4-0.5,1.5-0.4,3.3-0.7c1.5-0.2,2.5-0.7,2.6,0.3c0,1.4,0,3.8-0.5,5.9c-0.7,3.3-2.2,9-2.6,9.8c-0.9,1.7-6.8,4.3-7.6,3.8
	C84.8,176.7,90,157.1,90.3,156.8L90.3,156.8z"/>
<path class="st4" d="M109.6,48.9c0.9,1.2,1,2.4,0.5,3.8c-0.5,1.1-5.9,9.2-6.7,8.7c-0.4-0.3-1.6-3.7-2.1-4.9
	c-0.4-0.9-1.2-3.2-0.9-3.8c0.3-0.6,1.6-2.1,3-3.9c1.3-1.7,2.5-3.4,3.1-3.6C107.7,45,109.4,48.6,109.6,48.9L109.6,48.9z"/>
<path class="st3" d="M115.3,59.4c0.9,1.2,0.9,2.1,0.3,3.6c-0.5,1.1-8.3,12.3-9.1,11.8c-0.4-0.3-1-4.2-1.3-5.4
	c-0.8-3.6-1-4.7-0.7-5.3c0.2-0.3,2.8-3.3,4.2-5.1c1.3-1.7,2.5-4.3,3.1-4.5C113.2,54.1,115.1,59.1,115.3,59.4L115.3,59.4z"/>
<path class="st4" d="M120.2,70.3c1.2,1.8,0.5,2.2,0,3.6c-0.6,1.4-11.8,17.2-12.6,16.7c-0.4-0.3-1.6-2.9-1.9-4.2
	c-0.8-3.6-1.6-5.3-1.3-5.9c0.2-0.3,8-9.6,9.3-11.4c1.3-1.7,2.5-4.3,3.1-4.5C118.2,64.3,120.1,70,120.2,70.3L120.2,70.3z"/>
<path class="st3" d="M131.2,115.4c0.2,1.5-3.3,5.1-4.2,6.3c-0.9,1.3-12.7,13.5-13.5,13c-0.9-0.6-0.6-8.7-0.7-10
	c-0.2-1.9-0.1-2.6,0.2-3.2c0.3-0.6,9.4-10.5,10.8-12.2c1.4-1.7,4.7-6.8,5.3-6.9C130.5,102.2,131.1,115,131.2,115.4L131.2,115.4z
	 M124.9,82.7c1.1,1.9-0.2,3.2-0.8,4.6c-0.5,1.1-13,17-13.8,16.5c-0.4-0.3-1-4-1.2-5.2c-0.6-3.6-1.1-4.2-0.7-4.8
	c0.2-0.3,8.7-10.9,10.1-12.6c1.3-1.7,2.8-4.8,3.4-4.9C123.3,76,124.7,82.4,124.9,82.7L124.9,82.7z"/>
<path class="st4" d="M128.3,96.6c0.5,2.8-2.4,4.6-3,6c-0.5,1.1-12.2,16.2-13,15.7c-0.4-0.3-1.2-5.7-1.4-6.9
	c-0.6-3.6-0.3-4.1,0.1-4.7c0.2-0.3,9.8-11.9,11.2-13.7c1.3-1.7,2.8-4.8,3.4-4.9C127.1,87.8,128.3,96.3,128.3,96.6L128.3,96.6z"/>
<path class="st2" d="M77.4,65.8c0.7-0.6,1.4-1.5,2.6-2.9c2.1-2.4-2.1,3.3-5.2-7.3c0,0-4,0.9,0.2,4.2c0.6,0.5,0.2,2.9,0.3,4
	C75.5,65.6,76.6,66.4,77.4,65.8L77.4,65.8z"/>
<path class="st4" d="M0.2,124.8c-1,1,3.1,7.6,4,7.7s3.3-1.7,6.1-3.4c2.8-1.7,4.8-2.8,4.5-3.3c-1.1-1.4-5.5-7.1-5.5-7.1
	C8.7,117.6,0.4,124.6,0.2,124.8L0.2,124.8z M9.5,140.4c-0.9,1.2,5,8.2,5.9,8.1c0.6,0,5.2-3.6,7.6-5.7c2.5-2.1,5.4-4,4.7-4.8
	c-1.2-1.3-7.6-6.9-7.6-6.9C19.6,129.9,9.7,140.1,9.5,140.4L9.5,140.4z M22.8,158.3c-0.3,0.4,11.6,12.7,18,17.8
	c6.4,5,14.9,9,20.6,10.5c1.7,0.3,1.7-0.1,1.8-0.8c0.1-0.7,0.6-4-2.2-4.5c-11-2.3-28.5-14.2-29-16.4c-0.8-3.6-2.5-14.4-2.5-14.4
	C28.8,149.3,23,158.1,22.8,158.3L22.8,158.3z M141.6,124.8c1,1-3.1,7.6-4,7.7c-0.6,0.1-3.3-1.7-6.1-3.4c-2.3-1.4-4.8-2.8-4.5-3.3
	c1.1-1.4,5.5-7.1,5.5-7.1C133,117.6,141.3,124.6,141.6,124.8L141.6,124.8z M132.2,140.4c0.9,1.2-5,8.2-5.9,8.1
	c-0.6,0-5.2-3.6-7.6-5.7c-2.1-1.7-5.4-4-4.7-4.8c1.2-1.3,7.6-6.9,7.6-6.9C122.2,129.9,132,140.1,132.2,140.4L132.2,140.4z
	 M78.4,149.6c0.3-0.7,8.3-1.6,8.8-1.7c0.1,0,1-0.1,0.8,1.7l-1.7,8.6c0,0-3.1,18.3-4.8,19.5c-0.1,0.2-1.4,0.6-1.7,0
	C78.8,171.7,77.9,150.8,78.4,149.6L78.4,149.6z M119.2,158.3c0.3,0.4-11.6,12.7-18,17.8c-7.3,5.7-14.9,9-20.6,10.5
	c-1.7,0.3-1.7-0.1-1.8-0.8c-0.1-0.7-0.6-4,2.2-4.5c11-2.3,28.5-14.2,29-16.4c0.8-3.6,2.5-14.4,2.5-14.4
	C113.2,149.3,119,158.1,119.2,158.3L119.2,158.3z"/>
<path class="st3" d="M85.6,31.2c-1.3-1.1-2.5-2.1-8.4-2.1H64.7c-5.9-0.1-7.7,1.5-8.5,2.2c-0.8,0.7-4,4.6-4,4.6l18.6,14.6h0.5
	l18.6-14.6C89.8,35.9,86.9,32.3,85.6,31.2L85.6,31.2z M66.7,42.4c-0.5,0-1.3,0.1-1.6,0c-0.6-0.2-5.6-3.4-6.5-5.3
	c-0.1-0.1-0.1-0.4,0-0.6c0.9-1.9,5.9-5.4,6.5-5.4c0.6,0,0.8,0.1,1.2,0.2c0.2,0.1,0.3,0.2,0.1,0.3c-1.1,1-5.1,4.4-5.1,5.2
	c0,0.7,4.1,4.2,5.5,5.3C67,42.3,67,42.4,66.7,42.4L66.7,42.4z M72.7,38.4l-1.7,8.8l-0.3,0.3h-1l-0.2-0.3l1-8.8l1.4-7.5l0.2-0.1h1
	l0.1,0.2L72.7,38.4L72.7,38.4z M83.9,37c-0.9,1.9-5.9,5.2-6.5,5.3c-0.3,0.1-1.1,0.1-1.6,0c-0.3,0-0.3-0.2-0.1-0.4
	c1.3-1.1,5.5-4.6,5.5-5.3s-4-4.2-5.1-5.2c-0.2-0.2-0.1-0.3,0.1-0.3c0.4-0.1,1-0.2,1.2-0.2c0.6,0,5.6,3.5,6.5,5.4
	C83.9,36.5,83.9,36.8,83.9,37L83.9,37z"/>
</svg>
